<mxfile host="app.diagrams.net" modified="2024-06-02T20:33:21.839Z" agent="Mozilla/5.0 (Macintosh; Intel Mac OS X 10_15_7) AppleWebKit/537.36 (KHTML, like Gecko) Chrome/124.0.0.0 Safari/537.36" version="24.4.13" etag="l2ps9Ax19_8NHWbiPlMN" type="github">
  <diagram name="Page-1" id="PZNGuj38dO0O_1F0aBby">
    <mxGraphModel>
      <root>
        <mxCell id="0" />
        <mxCell id="1" parent="0" />
      </root>
    </mxGraphModel>
  </diagram>
</mxfile>
